<?xml version="1.0" encoding="utf-8"?>
<!-- Generator: Adobe Illustrator 25.0.1, SVG Export Plug-In . SVG Version: 6.00 Build 0)  -->
<svg version="1.0" id="Layer_1" xmlns="http://www.w3.org/2000/svg" xmlns:xlink="http://www.w3.org/1999/xlink" x="0px" y="0px"
	 viewBox="0 0 228 134" style="enable-background:new 0 0 228 134;" xml:space="preserve">
<style type="text/css">
	.st0{fill:#231814;}
	.st1{fill:#D7140E;}
	.st2{fill:none;}
</style>
<polygon class="st0" points="52.2,52.9 52.2,56.2 52.2,77.8 52.2,81.1 59.5,81.1 59.5,77.8 59.5,56.2 59.5,52.9 "/>
<path class="st0" d="M122.6,67.1c0,4.6-1.3,8.2-3.7,10.8s-6,3.9-10.4,3.9s-7.9-1.3-10.4-3.9s-3.7-6.2-3.7-10.8s1.3-8.3,3.7-10.9
	s6-3.9,10.5-3.9s8,1.3,10.5,3.9C121.4,58.7,122.6,62.4,122.6,67.1 M115.7,67.1c0.1-2.5-0.5-4.9-1.9-7c-1.2-1.7-3.2-2.7-5.3-2.6
	c-2.1-0.1-4.1,0.9-5.3,2.6c-1.4,2.1-2,4.5-1.9,7c-0.1,2.5,0.5,4.9,1.9,7c2.3,2.9,6.5,3.5,9.5,1.2c0.4-0.3,0.8-0.7,1.2-1.2
	C115.2,71.9,115.8,69.5,115.7,67.1"/>
<polygon class="st1" points="144.9,52.9 152.1,52.9 142.4,81.1 134,81.1 124.4,52.9 131.6,52.9 138.2,73.2 "/>
<path class="st0" d="M26.3,80.7v-5.6c2.7,0.9,5.5,1.4,8.4,1.4c3.4,0,5.1-0.9,5.1-2.7c0-0.6-0.3-1.3-0.7-1.7c-1.2-0.8-2.5-1.5-3.9-2
	c-3.7-1.5-6.1-2.9-7.3-4c-3-3.2-2.8-8.2,0.4-11.2c0.2-0.2,0.5-0.4,0.8-0.6c2.5-1.6,5.4-2.3,8.3-2.2c2.8,0.1,5.6,0.4,8.4,1v5
	c-2.5-0.7-5-1.1-7.6-1.2c-3.2,0-4.8,0.9-4.8,2.6c0,0.7,0.4,1.3,1,1.6c1.4,0.8,2.9,1.5,4.4,2.2c2.5,1,4.9,2.3,7,4
	c1.4,1.4,2.1,3.3,2.1,5.2c0.1,2.9-1.5,5.6-4,7c-2.6,1.4-5.5,2.1-8.4,2c-3,0.1-6.1-0.2-9-0.9L26.3,80.7z"/>
<polygon class="st0" points="64.9,81.1 64.9,52.9 73.9,52.9 83.9,71.7 83.9,52.9 89.5,52.9 89.5,81.1 81.1,81.1 70.5,61.9 
	70.5,81.1 "/>
<polygon class="st1" points="156.9,81.1 149.7,81.1 159.3,52.9 167.7,52.9 177.4,81.1 170.1,81.1 163.5,60.8 "/>
<path class="st1" d="M202,75.6c-2.2,0.6-4.5,0.9-6.8,1c-2.6,0.1-5.1-0.8-7-2.6c-1.8-1.9-2.8-4.4-2.6-7c-0.1-2.6,0.8-5.1,2.6-7
	c1.8-1.8,4.3-2.8,6.9-2.7c2.4,0.1,4.7,0.5,7,1.3v-5.1c-0.9-0.3-1.8-0.6-2.8-0.7c-1.5-0.3-3.1-0.5-4.6-0.4c-4.9,0-8.7,1.4-11.6,4.1
	c-2.9,2.7-4.3,6.3-4.3,10.9s1.4,8.1,4.3,10.7s6.8,3.9,11.8,3.9c1.5,0,2.9-0.1,4.3-0.4c1.1-0.2,2.1-0.4,3.1-0.6v-5.2H202z"/>
<rect x="20" y="46" class="st2" width="188" height="42"/>
</svg>
